REM GENRE "Electronic/Industrial Metal"
REM DATE 1999
REM DISCID 820BFE0A
REM COMMENT "ExactAudioCopy v1.0b3"
PERFORMER "The Kovenant"
TITLE "Animatronic [Reissue 2009]"
FILE "01-The Kovenant-Mirrors Paradise.wav" WAVE
  TRACK 01 AUDIO
    TITLE "Mirrors Paradise"
    PERFORMER "The Kovenant"
    ISRC PLA640906581
    FLAGS DCP
    INDEX 01 00:00:00
FILE "02-The Kovenant-New World Order.wav" WAVE
  TRACK 02 AUDIO
    TITLE "New World Order"
    PERFORMER "The Kovenant"
    ISRC PLA640906582
    FLAGS DCP
    INDEX 01 00:00:00
FILE "03-The Kovenant-Mannequin.wav" WAVE
  TRACK 03 AUDIO
    TITLE "Mannequin"
    PERFORMER "The Kovenant"
    ISRC PLA640906583
    FLAGS DCP
    INDEX 01 00:00:00
FILE "04-The Kovenant-Sindrom.wav" WAVE
  TRACK 04 AUDIO
    TITLE "Sindrom"
    PERFORMER "The Kovenant"
    ISRC PLA640906584
    FLAGS DCP
    INDEX 01 00:00:00
FILE "05-The Kovenant-Jihad.wav" WAVE
  TRACK 05 AUDIO
    TITLE "Jihad"
    PERFORMER "The Kovenant"
    ISRC PLA640906585
    FLAGS DCP
    INDEX 01 00:00:00
FILE "06-The Kovenant-The Human Abstract.wav" WAVE
  TRACK 06 AUDIO
    TITLE "The Human Abstract"
    PERFORMER "The Kovenant"
    ISRC PLA640906586
    FLAGS DCP
    INDEX 01 00:00:00
FILE "07-The Kovenant-Prophecies Of Fire.wav" WAVE
  TRACK 07 AUDIO
    TITLE "Prophecies Of Fire"
    PERFORMER "The Kovenant"
    ISRC PLA640906587
    FLAGS DCP
    INDEX 01 00:00:00
FILE "08-The Kovenant-In The Name Of The Future.wav" WAVE
  TRACK 08 AUDIO
    TITLE "In The Name Of The Future"
    PERFORMER "The Kovenant"
    ISRC PLA640906588
    FLAGS DCP
    INDEX 01 00:00:00
FILE "09-The Kovenant-Spaceman [Babylon Zoo Cover].wav" WAVE
  TRACK 09 AUDIO
    TITLE "Spaceman [Babylon Zoo Cover]"
    PERFORMER "The Kovenant"
    ISRC PLA640906589
    FLAGS DCP
    INDEX 01 00:00:00
FILE "10-The Kovenant-The Birth Of Tragedy.wav" WAVE
  TRACK 10 AUDIO
    TITLE "The Birth Of Tragedy"
    PERFORMER "The Kovenant"
    ISRC PLA640906590
    FLAGS DCP
    INDEX 01 00:00:00
